<svg xmlns="http://www.w3.org/2000/svg" fill="none" viewBox="0 0 100 20" width="100px" height="20px"><g clip-path="url(#1a)"><path fill="#000" d="m93.099 16.79-3.704-8.509h2.48l2.53 6.101 2.922-6.1h2.439L94.004 20H91.52zm-9.023-1.764a2.53 2.53 0 0 0 1.157-.607q.241-.22.412-.5.175-.293.267-.622.105-.361.103-.736a2.7 2.7 0 0 0-.103-.746 2.6 2.6 0 0 0-.272-.622 2.37 2.37 0 0 0-.937-.875q-.3-.15-.627-.226a3 3 0 0 0-.7-.077 3 3 0 0 0-.694.077q-.323.075-.618.226a2.3 2.3 0 0 0-.947.875 2.5 2.5 0 0 0-.267.622 2.8 2.8 0 0 0-.092.746q-.004.375.092.736.09.327.268.617.168.283.411.505.243.218.53.375.293.157.617.231a3 3 0 0 0 1.4 0m-2.506 1.903a4.5 4.5 0 0 1-1.085-.432 4.15 4.15 0 0 1-1.59-1.595 4.5 4.5 0 0 1-.437-1.096 5.24 5.24 0 0 1 0-2.505c.097-.381.244-.748.437-1.09a4.2 4.2 0 0 1 1.59-1.59 4.5 4.5 0 0 1 1.085-.432 5 5 0 0 1 1.245-.155q.34 0 .68.041a4.1 4.1 0 0 1 1.157.32q.249.105.478.246.22.135.407.309.172.168.319.36V8.281h2.356v8.555h-2.356v-1.029a3.1 3.1 0 0 1-1.199.926 4 4 0 0 1-.849.258q-.492.093-.993.092c-.42.002-.838-.05-1.245-.154m-8.555-6.482c.338.007.676-.031 1.004-.113a1.8 1.8 0 0 0 .7-.35 1.4 1.4 0 0 0 .41-.576c.092-.256.135-.526.13-.797.004-.27-.041-.54-.135-.793a1.36 1.36 0 0 0-.411-.57 1.85 1.85 0 0 0-.694-.345 3.8 3.8 0 0 0-1.004-.119H70.7v3.663zm-4.753-5.68h4.985q1.172 0 2.037.289.864.288 1.42.792c.37.337.656.756.833 1.224a4.3 4.3 0 0 1 .273 1.544 4.2 4.2 0 0 1-.273 1.543 3.2 3.2 0 0 1-.833 1.214q-.56.514-1.42.803-.864.288-2.037.288H70.7v4.372h-2.438zm-10.474 3.51h2.34v1.028q.219-.301.51-.53.307-.244.664-.406a3.6 3.6 0 0 1 .818-.257q.47-.087.946-.083c.496-.007.99.077 1.456.247a3 3 0 0 1 1.101.71c.311.327.547.719.69 1.147.164.493.244 1.01.236 1.528v5.17h-2.33v-4.563a3.2 3.2 0 0 0-.14-.988 2 2 0 0 0-.395-.715 1.6 1.6 0 0 0-.638-.427c-.277-.1-.57-.149-.865-.144a2.5 2.5 0 0 0-.864.144 1.6 1.6 0 0 0-.643.427c-.181.21-.316.455-.396.72a3.2 3.2 0 0 0-.139.978v4.568h-2.35zm-5.761 6.728a3 3 0 0 0 .643-.242q.293-.151.53-.38.234-.229.4-.51.17-.29.248-.617.083-.35.082-.71.002-.362-.082-.715a2.3 2.3 0 0 0-.649-1.122 2.4 2.4 0 0 0-.53-.385 2.6 2.6 0 0 0-.642-.242 3.2 3.2 0 0 0-.741-.083 3.2 3.2 0 0 0-.736.083q-.337.076-.643.242a2.5 2.5 0 0 0-.525.385q-.234.226-.39.51-.16.291-.248.612-.09.351-.087.715-.002.361.087.71.086.323.247.617.159.286.391.515.241.226.535.37a2.86 2.86 0 0 0 1.379.324q.376.004.74-.082m-2.124 1.924a5.5 5.5 0 0 1-1.219-.437 4.5 4.5 0 0 1-1.003-.69 4.2 4.2 0 0 1-1.235-2.006 4.74 4.74 0 0 1 0-2.505 4.23 4.23 0 0 1 1.235-2.002c.3-.276.638-.51 1.003-.694q.584-.29 1.22-.437a6.25 6.25 0 0 1 2.777 0c.42.096.829.243 1.214.437.363.187.7.42 1.003.694.298.265.558.57.772.906.213.34.376.709.484 1.096.224.82.224 1.685 0 2.505a4.24 4.24 0 0 1-1.256 2.006c-.303.272-.64.503-1.003.69a5.4 5.4 0 0 1-1.209.437 6.3 6.3 0 0 1-2.778 0M40.781 15q.336-.084.643-.242.294-.151.53-.38.234-.229.401-.51.17-.29.247-.617.084-.35.082-.71a3 3 0 0 0-.082-.715 2.3 2.3 0 0 0-.648-1.122 2.4 2.4 0 0 0-.53-.386 2.6 2.6 0 0 0-.643-.241 3.2 3.2 0 0 0-.74-.083 3.2 3.2 0 0 0-.736.083q-.339.076-.643.241a2.5 2.5 0 0 0-.525.386q-.234.226-.391.51-.16.291-.247.612-.091.351-.088.715-.002.361.088.71.085.324.247.617.158.286.39.514.235.226.526.376a2.86 2.86 0 0 0 1.378.324q.376.004.741-.082m-2.13 1.929a5.5 5.5 0 0 1-1.219-.437 4.5 4.5 0 0 1-1.003-.69 4.2 4.2 0 0 1-.756-.905 4.3 4.3 0 0 1-.479-1.101 4.74 4.74 0 0 1 0-2.505 4.2 4.2 0 0 1 .479-1.096c.21-.335.464-.64.756-.905.3-.277.638-.51 1.003-.695q.584-.29 1.22-.437a6.25 6.25 0 0 1 2.777 0q.631.147 1.21.437c.364.186.703.42 1.007.695.298.264.558.569.772.905.211.34.373.71.479 1.096.224.82.224 1.685 0 2.505a4.16 4.16 0 0 1-1.251 2.006 4.8 4.8 0 0 1-1.008.69q-.575.29-1.204.437a6.3 6.3 0 0 1-2.778 0M20.173 4.768h2.47l4.207 6.435 4.24-6.435h2.468v12.068h-2.443V8.56l-3.498 5.34h-1.492l-3.498-5.34v8.282h-2.444z"></path><path fill="#7D00FF" d="M14.555 6.928a2.464 2.464 0 1 0 0-4.928 2.464 2.464 0 0 0 0 4.928M6.998 18.025a6.004 6.004 0 1 1 .01-12.008 6.004 6.004 0 0 1-.01 12.008"></path></g><defs><clipPath id="1a"><path fill="#fff" d="M0 0h100v20H0z"></path></clipPath></defs></svg>